<svg width="98" height="44" xmlns="http://www.w3.org/2000/svg" xmlns:xlink="http://www.w3.org/1999/xlink"><defs><path id="a" d="M.02.048v15.259H26.6V.048H.02z"/></defs><g fill="none" fill-rule="evenodd"><g transform="translate(0 6.72)"><mask id="b" fill="#fff"><use xlink:href="#a"/></mask><path d="M19.098 15.11h7.305v-.105l-2.038-.148V4.577c0-2.713-1.421-4.332-3.8-4.332-2.057 0-3.588.872-5.12 2.914l-.029.04h-.363l-.018-.076C14.422.526 12.295.245 11.41.245c-2.248 0-3.58 1.049-4.886 2.623l-.03.035h-.44V.245h-.197L.492.535V.64h1.772v14.218l-2.067.148v.105h7.895v-.105l-2.038-.148V3.505l.026-.029c1.379-1.5 2.124-2.128 3.174-2.128 1.457 0 2.166.92 2.166 2.815v10.692l-1.477.147v.108h7.304v-.105l-2.038-.148v-11.2l.02-.025c1.225-1.644 2.117-2.284 3.18-2.284 1.457 0 2.166.92 2.166 2.815v10.692l-1.477.147v.108zm7.501.197h-7.698v-.483l1.477-.148V4.163c0-1.786-.626-2.618-1.969-2.618-.987 0-1.83.61-3.003 2.178v10.95l2.038.149v.485H9.746v-.483l1.477-.148V4.163c0-1.786-.626-2.618-1.97-2.618-.968 0-1.681.6-3.002 2.037v11.092l2.038.148v.485H0v-.485l2.068-.148V.836H.295V.349L.388.344 5.852.048h.399v2.658h.151C7.735 1.11 9.102.048 11.41.048c1.916 0 3.33 1.103 3.798 2.954h.11C16.881.932 18.452.048 20.565.048c.937 0 3.997.327 3.997 4.528v10.098l2.037.148v.485z" fill="#1A1918" mask="url(#b)"/></g><path d="M34.849 14.39l-1.728.632c-1.346.494-2.18 1.15-2.18 2.89 0 1.573.865 2.59 2.205 2.59.582 0 1.14-.133 1.703-.406V14.39zm-1.703 6.308c-1.46 0-2.402-1.093-2.402-2.786 0-1.848.923-2.566 2.309-3.075l1.993-.727v6.107l-.055.028a4.044 4.044 0 0 1-1.845.453zm1.9 1.428h.196l5.632-.29v-.104h-2.038V11.03c0-3.537-3.232-4.065-5.158-4.065-3.21 0-6.133 1.74-6.133 3.652 0 .938.748 1.673 1.702 1.673 1.089 0 1.792-.669 1.792-1.703 0-.392-.157-.756-.442-1.024-.372-.35-.929-.51-1.61-.472l-.104.006v-.443l.032-.03c.792-.73 2.252-1.325 3.256-1.325 1.988 0 2.875.896 2.875 2.904v3.822l-4.114 1.351c-1.966.703-3.978 1.687-3.978 3.658 0 1.848 1.373 3.09 3.416 3.09 1.68 0 2.701-.517 4.225-1.605l.026-.019h.425v1.625zm-.099.197h-.098v-1.625h-.166c-1.544 1.1-2.588 1.625-4.313 1.625-2.127 0-3.613-1.352-3.613-3.288 0-2.093 2.078-3.118 4.111-3.844l3.98-1.307v-3.68c0-1.897-.8-2.707-2.677-2.707-.931 0-2.335.567-3.091 1.245v.148c.867-.03 1.375.27 1.652.53.325.306.504.72.504 1.168 0 1.154-.78 1.9-1.989 1.9-1.065 0-1.9-.821-1.9-1.87 0-2.015 3.018-3.85 6.33-3.85 3.404 0 5.356 1.554 5.356 4.263v10.504h2.038v.487l-5.823.3h-.3zM42.133 21.83h7.895v-.105l-2.037-.148.006-9.075c.795-2.086 1.519-3.384 2.214-3.968l.028-.023h.424l.005.093c.087 1.425 1.067 2.063 1.999 2.063.877 0 1.82-.598 1.82-1.91 0-1.163-.998-1.791-1.939-1.791-1.966 0-3.3 2.167-4.073 3.985l-.025.06h-.46V6.967h-.196l-5.365.29v.103H44.2v14.218l-2.068.148v.105zm8.092.197h-8.289v-.485l2.068-.148V7.556h-1.772V7.07l.093-.005 5.464-.295h.399v4.046h.132c1.138-2.648 2.599-4.046 4.228-4.046 1.036 0 2.137.697 2.137 1.988 0 1.448-1.046 2.107-2.018 2.107-.971 0-2.056-.675-2.188-2.156h-.168c-.65.565-1.365 1.86-2.123 3.848v8.838l2.037.148v.485zM55.157 7.507h1.979V18.68c0 2.286 1.09 3.446 3.239 3.446 1.468 0 3.132-.381 4.36-.996v-.087c-.789.329-1.3.453-1.85.453-1.447 0-1.96-.845-1.96-3.23V7.508h3.81v-.246h-3.81V3.717h-.157L57.08 7.258l-1.923.143v.106zm5.218 14.816c-2.28 0-3.436-1.226-3.436-3.643V7.704H54.96v-.485l2.035-.152 3.694-3.547h.434v3.544h3.81v.64h-3.81v10.563c0 2.549.62 3.032 1.762 3.032.558 0 1.058-.13 1.91-.495l.138-.058v.505l-.054.027c-1.26.644-2.985 1.045-4.504 1.045zM75.742 21.83h7.304v-.105l-2.038-.148v-10.28c0-2.712-1.42-4.331-3.8-4.331-2.011 0-3.562.785-5.183 2.624l-.03.034h-.437V.468h-.197l-5.366.29v.104h1.772v20.715l-2.067.148v.105h7.895v-.105l-2.037-.148V10.225l.026-.028c1.268-1.38 2.19-2.129 3.439-2.129 1.436 0 2.195.974 2.195 2.816v10.691l-1.476.148v.107zm7.5.197h-7.697v-.483l1.476-.147V10.884c0-1.738-.673-2.619-1.998-2.619-1.04 0-1.866.514-3.269 2.037v11.092l2.038.148v.485h-8.289v-.485l2.067-.148V1.06H65.8V.572l.093-.005 5.464-.295h.398v9.155h.153c1.652-1.863 3.24-2.658 5.301-2.658.938 0 3.997.326 3.997 4.528v10.097l2.038.148v.485zM91.197 14.39l-1.728.632c-1.346.494-2.18 1.15-2.18 2.89 0 1.573.865 2.59 2.205 2.59.581 0 1.139-.133 1.703-.406V14.39zm-1.703 6.308c-1.46 0-2.402-1.093-2.402-2.786 0-1.848.923-2.566 2.309-3.075l1.993-.727v6.107l-.054.028a4.048 4.048 0 0 1-1.846.453zm1.9 1.428h.197l5.63-.29v-.104h-2.037V11.03c0-3.537-3.232-4.065-5.159-4.065-3.21 0-6.133 1.74-6.133 3.652 0 .938.748 1.673 1.703 1.673 1.089 0 1.792-.669 1.792-1.703 0-.393-.157-.756-.442-1.024-.373-.35-.93-.511-1.61-.472l-.104.006v-.443l.032-.03c.792-.73 2.252-1.325 3.256-1.325 1.988 0 2.875.896 2.875 2.904v3.822l-4.114 1.351c-1.966.703-3.978 1.687-3.978 3.658 0 1.848 1.373 3.09 3.416 3.09 1.68 0 2.701-.517 4.225-1.605l.025-.019h.426v1.625zm-.098.197h-.099v-1.625h-.166c-1.544 1.1-2.589 1.625-4.313 1.625-2.127 0-3.613-1.352-3.613-3.288 0-2.093 2.078-3.118 4.111-3.844l3.981-1.307v-3.68c0-1.897-.801-2.707-2.678-2.707-.932 0-2.335.567-3.091 1.245v.148c.864-.028 1.375.27 1.652.53.325.306.504.72.504 1.168 0 1.154-.78 1.9-1.989 1.9-1.065 0-1.9-.821-1.9-1.87 0-2.015 3.018-3.85 6.33-3.85 3.404 0 5.355 1.554 5.355 4.263v10.504h2.038v.487l-5.822.3h-.3zM6.448 9.525c1.447-1.743 2.806-2.658 4.961-2.658 1.625 0 3.22.827 3.722 2.953h.236c1.506-2.008 3.042-2.953 5.198-2.953 1.978 0 3.898 1.181 3.898 4.43v10.189l2.038.147v.296h-7.502v-.296l1.477-.147V10.884c0-1.506-.443-2.717-2.067-2.717-1.034 0-1.89.62-3.101 2.244v11.075l2.038.147v.296H9.844v-.296l1.477-.147V10.884c0-1.506-.443-2.717-2.067-2.717-1.034 0-1.772.65-3.101 2.096v11.223l2.037.147v.296H.098v-.296l2.068-.147V7.458H.394v-.295l5.463-.296h.296v2.658h.295" fill="#1A1918"/><path d="M33.116 14.93c-1.447.531-2.244 1.27-2.244 2.982 0 1.684.944 2.688 2.303 2.688.62 0 1.211-.148 1.802-.443V14.25l-1.86.68zm1.565 5.67c-1.447 1.033-2.51 1.624-4.282 1.624-2.215 0-3.514-1.417-3.514-3.19 0-2.008 1.978-3.012 4.046-3.75l4.046-1.329v-3.75c0-1.98-.857-2.806-2.776-2.806-.975 0-2.422.59-3.19 1.3v.294c1.447-.088 2.156.739 2.156 1.595 0 .975-.62 1.802-1.89 1.802-1.004 0-1.802-.768-1.802-1.772 0-1.979 3.013-3.75 6.232-3.75 2.599 0 5.257.944 5.257 4.163v10.602H41v.296l-5.729.295h-.295V20.6h-.296zM48.384 10.913c1.004-2.362 2.393-4.046 4.164-4.046 1.034 0 2.038.709 2.038 1.89 0 1.33-.945 2.008-1.92 2.008-1.003 0-2.008-.708-2.096-2.156h-.295c-.739.62-1.477 2.068-2.186 3.928v8.949l2.038.147v.296h-8.092v-.296l2.067-.147V7.458H42.33v-.295l5.464-.296h.295v4.046h.295M61.054 18.267c0 2.54.62 3.13 1.86 3.13.59 0 1.122-.147 1.95-.502v.296c-1.27.65-2.983 1.033-4.46 1.033-2.067 0-3.337-1.033-3.337-3.544V7.605h-1.979V7.31l1.979-.147 3.691-3.544h.296v3.544h3.81v.442h-3.81v10.662M75.702 21.929v-.296l1.476-.147V10.884c0-1.506-.502-2.717-2.096-2.717-1.152 0-2.038.65-3.367 2.096v11.223l2.038.147v.296H65.66v-.296l2.068-.147V.96h-1.772V.665L71.419.37h.296v9.155h.295c1.536-1.743 3.101-2.658 5.257-2.658 1.979 0 3.898 1.181 3.898 4.43v10.189l2.038.147v.296h-7.501M89.493 14.93c-1.447.531-2.244 1.27-2.244 2.982 0 1.684.945 2.688 2.303 2.688.62 0 1.211-.148 1.802-.443V14.25l-1.86.68zm1.566 5.67c-1.448 1.033-2.51 1.624-4.283 1.624-2.215 0-3.514-1.417-3.514-3.19 0-2.008 1.978-3.012 4.046-3.75l4.046-1.329v-3.75c0-1.98-.857-2.806-2.776-2.806-.975 0-2.422.59-3.19 1.3v.294c1.447-.088 2.156.739 2.156 1.595 0 .975-.62 1.802-1.89 1.802-1.004 0-1.802-.768-1.802-1.772 0-1.979 3.013-3.75 6.232-3.75 2.599 0 5.257.944 5.257 4.163v10.602h2.037v.296l-5.729.295h-.295V20.6h-.295zM49.47 27.144c0-.432-.352-.865-.955-.865-.563 0-.895.392-.895.865-.01.392.242.683.583 1.025l.221.221c.302-.181 1.045-.573 1.045-1.246zm-1.106 4.753c.723 0 1.216-.382 1.507-.723l-1.678-1.77c-.311.192-.985.614-.985 1.408 0 .633.513 1.085 1.156 1.085zm-.713-3.035v-.02l-.232-.251c-.391-.412-.703-.854-.693-1.458 0-.763.603-1.627 1.839-1.627 1.105 0 1.799.723 1.799 1.597 0 .966-.965 1.609-1.357 1.88l1.407 1.407c.221-.422.352-.935.382-1.448.01-.22.09-.28.281-.24l.412.08c.231.04.181.221.171.311a5.386 5.386 0 0 1-.613 1.93l.935.904c.12.12.21.231-.02.462l-.262.262c-.12.11-.281.13-.432-.03l-.794-.804c-.361.411-1.085.924-2.19.924-1.266 0-2.03-.864-2.03-1.87 0-1.205 1.035-1.798 1.397-2.009z" fill="#1A1918"/><path fill="#6F8F9D" d="M57.953 30.05h39.603v-.59H57.953zM.185 30.05H39.79v-.59H.185z"/><path d="M2.711 36.81c.01-.077.069-.145.176-.145h.156c.078 0 .136.039.165.097l2.145 4.6h.029l2.144-4.6c.03-.058.078-.097.166-.097h.156c.107 0 .166.068.175.146l1.15 6.55c.03.136-.048.224-.175.224h-.887c-.088 0-.166-.078-.185-.146l-.575-3.694h-.03l-1.705 3.83c-.02.059-.078.107-.166.107h-.175c-.088 0-.137-.048-.166-.107l-1.725-3.83h-.03l-.565 3.694a.189.189 0 0 1-.175.146h-.877c-.127 0-.205-.088-.186-.224l1.16-6.55M16.267 41.256l-.975-2.145h-.03l-.955 2.145h1.96zm-4.211 2.075l3.03-6.559c.03-.059.08-.107.167-.107h.097c.098 0 .137.048.166.107l3.002 6.56c.058.126-.02.253-.166.253h-.848c-.146 0-.214-.058-.282-.195l-.478-1.053H13.83l-.478 1.053a.294.294 0 0 1-.283.195h-.847c-.147 0-.225-.127-.166-.254zM24.218 39.871c.516 0 .965-.448.965-.994 0-.517-.449-.945-.965-.945h-1.589v1.94h1.589zm-2.866-2.924c0-.097.078-.185.185-.185h2.788c1.17 0 2.125.936 2.125 2.096 0 .897-.595 1.627-1.443 1.968l1.335 2.477c.069.126 0 .282-.165.282h-1.024a.167.167 0 0 1-.155-.088L23.7 40.914H22.62V43.4a.191.191 0 0 1-.185.185h-.897a.185.185 0 0 1-.185-.185v-6.453zM29.79 36.947c0-.097.079-.185.186-.185h.897c.097 0 .185.088.185.185v5.468h2.485c.108 0 .185.088.185.186v.799a.185.185 0 0 1-.185.185h-3.567a.185.185 0 0 1-.185-.185v-6.453M36.953 36.947c0-.097.078-.185.185-.185h3.967c.107 0 .185.088.185.185v.8a.185.185 0 0 1-.185.185H38.22v1.598h2.407c.098 0 .186.088.186.186v.808a.185.185 0 0 1-.186.186H38.22v1.705h2.885c.107 0 .185.088.185.186v.799a.185.185 0 0 1-.185.185h-3.967a.185.185 0 0 1-.185-.185v-6.453M45.928 40.3l-2.222-3.255c-.078-.127 0-.283.156-.283h.994c.078 0 .127.049.156.088l1.56 2.242 1.559-2.242c.029-.04.078-.088.156-.088h1.004c.156 0 .234.156.156.283l-2.252 3.245v3.11a.191.191 0 0 1-.185.185h-.897a.185.185 0 0 1-.185-.185v-3.1M54.98 42.63l.35-.605a.225.225 0 0 1 .332-.068c.049.03.839.604 1.472.604.507 0 .887-.331.887-.75 0-.497-.419-.838-1.238-1.17-.916-.37-1.832-.955-1.832-2.105 0-.867.643-1.871 2.193-1.871.994 0 1.754.506 1.95.653.097.058.126.224.058.321l-.37.556c-.078.117-.225.195-.342.117-.078-.05-.819-.536-1.355-.536-.555 0-.858.37-.858.682 0 .458.361.77 1.15 1.092.946.38 2.038.945 2.038 2.202 0 1.004-.868 1.93-2.242 1.93-1.228 0-1.95-.575-2.144-.76-.088-.088-.137-.137-.049-.292M65.008 39.92c.546 0 1.004-.439 1.004-1.014 0-.536-.458-.945-1.004-.945h-1.13v1.96h1.13zm-2.398-2.973c0-.097.078-.185.185-.185h2.29c1.2 0 2.184.975 2.184 2.154 0 1.208-.985 2.193-2.173 2.193h-1.219V43.4a.192.192 0 0 1-.185.185h-.897a.185.185 0 0 1-.185-.185v-6.453zM73.34 42.415a2.246 2.246 0 0 0 2.241-2.232c0-1.228-1.013-2.251-2.242-2.251-1.228 0-2.232 1.023-2.232 2.251a2.238 2.238 0 0 0 2.232 2.232zm0-5.75c1.949 0 3.508 1.569 3.508 3.518 0 1.95-1.56 3.5-3.509 3.5a3.478 3.478 0 0 1-3.499-3.5c0-1.949 1.55-3.518 3.5-3.518zM83.084 42.415a2.246 2.246 0 0 0 2.241-2.232c0-1.228-1.013-2.251-2.241-2.251-1.228 0-2.232 1.023-2.232 2.251a2.238 2.238 0 0 0 2.232 2.232zm0-5.75c1.95 0 3.509 1.569 3.509 3.518 0 1.95-1.56 3.5-3.51 3.5a3.478 3.478 0 0 1-3.498-3.5c0-1.949 1.55-3.518 3.499-3.518zM89.621 36.84c0-.098.088-.175.186-.175h.243l4.055 4.308h.01v-4.026c0-.097.078-.185.185-.185h.897c.097 0 .185.088.185.185v6.56c0 .097-.088.175-.185.175h-.234l-4.074-4.474h-.01V43.4a.184.184 0 0 1-.185.185h-.887a.191.191 0 0 1-.186-.185v-6.56" fill="#1A1918"/></g></svg>
